<?xml version="1.0" encoding="UTF-8" standalone="no" ?>
<!DOCTYPE svg PUBLIC "-//W3C//DTD SVG 1.1//EN" "http://www.w3.org/Graphics/SVG/1.1/DTD/svg11.dtd">
<svg xmlns="http://www.w3.org/2000/svg" xmlns:xlink="http://www.w3.org/1999/xlink" version="1.1" width="1080" height="1080" viewBox="0 0 1080 1080" xml:space="preserve">
<desc>Created with Fabric.js 5.2.4</desc>
<defs>
</defs>
<rect x="0" y="0" width="100%" height="100%" fill="transparent"></rect>
<g transform="matrix(1 0 0 1 540 540)" id="12fd8cfa-e4ea-4233-b2ad-d7e4aac8440d"  >
</g>
<g transform="matrix(1 0 0 1 540 540)" id="fa62bf6d-b8a7-48a2-a0e3-64094cb7965e"  >
<rect style="stroke: none; stroke-width: 1; stroke-dasharray: none; stroke-linecap: butt; stroke-dashoffset: 0; stroke-linejoin: miter; stroke-miterlimit: 4; fill: rgb(255,255,255); fill-rule: nonzero; opacity: 1; visibility: hidden;" vector-effect="non-scaling-stroke"  x="-540" y="-540" rx="0" ry="0" width="1080" height="1080" />
</g>
<g transform="matrix(0 0 0 0 0 0)"  >
<g style=""   >
</g>
</g>
<g transform="matrix(0 0 0 0 0 0)"  >
<g style=""   >
</g>
</g>
<g transform="matrix(0.72 0 0 0.73 425.61 303.04)" style="" id="6574920c-d9fc-456d-a06e-ef6b82cdfd26"  >
		<text xml:space="preserve" font-family="Alegreya" font-size="26" font-style="normal" font-weight="700" style="stroke: none; stroke-width: 1; stroke-dasharray: none; stroke-linecap: butt; stroke-dashoffset: 0; stroke-linejoin: miter; stroke-miterlimit: 4; fill: rgb(19,26,76); fill-rule: nonzero; opacity: 1; white-space: pre;" ><tspan x="-130.52" y="8.17" >Egrocify Reseller Center</tspan></text>
</g>
<g transform="matrix(1 0 0 1 310.05 304.15)"  >
<path style="stroke: none; stroke-width: 1; stroke-dasharray: none; stroke-linecap: butt; stroke-dashoffset: 0; stroke-linejoin: miter; stroke-miterlimit: 4; fill: rgb(129,68,229); fill-rule: nonzero; opacity: 1;" vector-effect="non-scaling-stroke"  transform=" translate(-11.47, -13.27)" d="M 20.104686 1.79999989 C 21.6772037 1.79999989 22.9499986 2.93808582 22.9499986 4.34131721 L 22.9499986 17.786232 C 22.9499986 18.6958849 22.405297100000002 19.5375518 21.5211836 19.9903387 L 12.8908126 24.4135089 C 12.00095 24.8621617 10.949048600000001 24.8621617 10.059186 24.4135089 L 1.4288149900000011 19.9903387 C 0.5474386900000011 19.5375518 1.1102230246251565e-15 18.6958849 1.1102230246251565e-15 17.786232 L 1.1102230246251565e-15 4.341317209999998 C 1.1102230246251565e-15 2.9380858199999977 1.2741635600000012 1.7999998899999978 2.8453126100000015 1.7999998899999978 z M 11.4749993 5.8717738399999995 C 10.3301665 5.8717738399999995 9.40209621 6.799844169999999 9.40209621 7.94467695 C 9.40209621 9.08950972 10.3301665 10.017579999999999 11.4749993 10.017579999999999 C 12.6198321 10.017579999999999 13.5479024 9.089509719999999 13.5479024 7.944676949999999 C 13.5479024 6.799844169999999 12.6198321 5.8717738399999995 11.4749993 5.8717738399999995 z" stroke-linecap="round" />
</g>
<g transform="matrix(NaN NaN NaN NaN 0 0)"  >
<g style=""   >
</g>
</g>
<g transform="matrix(NaN NaN NaN NaN 0 0)"  >
<g style=""   >
</g>
</g>
<g transform="matrix(NaN NaN NaN NaN 0 0)"  >
<g style=""   >
</g>
</g>
</svg>